<svg version="1.1" id="Layer_1" xmlns="http://www.w3.org/2000/svg" xmlns:xlink="http://www.w3.org/1999/xlink" x="0px" y="0px" width="32px" height="32px" viewBox="0 0 32 32" enable-background="new 0 0 32 32" xml:space="preserve">
  <g id="icon">
    <path d="M27.7,1H6.3c-0.718,0,-1.3,0.582,-1.3,1.3v27.4c0,0.718,0.582,1.3,1.3,1.3h21.4c0.718,0,1.3,-0.582,1.3,-1.3V2.3C29,1.582,28.418,1,27.7,1zM27,29H8H7H6v-2h1v-2H6v-2h1v-2H6v-2h1v-2H6v-2h1v-2H6v-2h1V9H6V7h1V5H6V3h1h1h19V29z" fill="#eab765"/>
    <rect x="7" y="3" width="20" height="26" fill="#FFFFFF"/>
    <path d="M5,19v2H3v-2H5zM3,15v2h2v-2H3zM3,11v2h2v-2H3zM3,23v2h2v-2H3zM3,27v2h2v-2H3zM5,7v2H3V7H5zM5,3v2H3V3H5z" fill="#e6e7e8"/>
    <path d="M6,19v2H5v-2H6zM5,15v2h1v-2H5zM5,11v2h1v-2H5zM5,23v2h1v-2H5zM5,27v2h1v-2H5zM6,7v2H5V7H6zM6,3v2H5V3H6z" fill="#F1F2F2"/>
    <path d="M8,19v2H6v-2H8zM6,15v2h2v-2H6zM6,11v2h2v-2H6zM6,23v2h2v-2H6zM6,27v2h2v-2H6zM8,7v2H6V7H8zM8,3v2H6V3H8z" fill="#B4B4B5"/>
    <rect x="10" y="4" width="15" height="11" fill="#E6E9ED"/>
    <rect x="10" y="17" width="15" height="11" fill="#E6E9ED"/>
    <path d="M19.309,22.564c0.991,0.699,2.084,1.36,3.383,1.73v0.425C17.099,23.262,15.28,16.78,10,22.554V27h14.988v-0.823H25v-1.58v-0.962v-0.131C23.08,22.086,21.601,20.774,19.309,22.564z" fill="#4EA17E"/>
    <path d="M10,11.507l4.472,-4.643c0.144,-0.162,0.439,-0.162,0.583,0.001l1.685,1.895l-2.032,2.193l0.258,0.304l5.2,-5.636c0.144,-0.161,0.433,-0.161,0.577,0l4.187,4.685c0.046,0.052,0.072,0.115,0.072,0.18V14H10V11.507z" fill="#eab765"/>
  </g>
</svg>