<svg version="1.1" id="Layer_1" xmlns="http://www.w3.org/2000/svg" xmlns:xlink="http://www.w3.org/1999/xlink" x="0px" y="0px" width="16px" height="16px" viewBox="0 0 16 16" enable-background="new 0 0 16 16" xml:space="preserve">
  <g id="icon">
    <path d="M14.9,0.5H4.1c-0.33,0,-0.6,0.27,-0.6,0.6v0.9h8.583C13.142,2,14,2.858,14,3.917V12.5h0.9c0.33,0,0.6,-0.27,0.6,-0.6V1.1C15.5,0.77,15.23,0.5,14.9,0.5z" fill="#FFFFFF"/>
    <path d="M14.9,0H4.1c-0.607,0,-1.1,0.493,-1.1,1.1v0.9h1v-0.9c0,-0.054,0.046,-0.1,0.1,-0.1h10.8c0.054,0,0.1,0.046,0.1,0.1v10.8c0,0.054,-0.046,0.1,-0.1,0.1h-0.9v1h0.9c0.607,0,1.1,-0.493,1.1,-1.1V1.1C16,0.493,15.507,0,14.9,0z" fill="#6D6E71"/>
    <path d="M11.9,15.5H1.1c-0.33,0,-0.6,-0.27,-0.6,-0.6V4.1c0,-0.33,0.27,-0.6,0.6,-0.6h10.8c0.33,0,0.6,0.27,0.6,0.6v10.8C12.5,15.23,12.23,15.5,11.9,15.5z" fill="#FFFFFF" stroke="#6D6E71" stroke-width="1" stroke-miterlimit="10"/>
    <circle cx="8.5" cy="6.7" r="2" fill="#EAB765"/>
    <path d="M7.418,10.586c0.634,0.51,1.334,0.993,2.165,1.262l-0.24,0.47c-3.58,-1.063,-4.264,-6.115,-7.643,-1.9V14.3h9.592v-1.237H11.3v-1.154v-0.702v-0.096C10.071,10.077,8.885,9.279,7.418,10.586z" fill="#4EA17E"/>
  </g>
</svg>