<svg version="1.1" id="Layer_1" xmlns="http://www.w3.org/2000/svg" xmlns:xlink="http://www.w3.org/1999/xlink" x="0px" y="0px" width="16px" height="16px" viewBox="0 0 16 16" enable-background="new 0 0 16 16" xml:space="preserve">
  <g id="main">
    <g id="icon">
      <path d="M1.601,0.07754L1.289,0.2887L1.078,0.6012L1,0.983L1,14.02L1.078,14.4L1.289,14.71L1.601,14.92L1.983,15L9,15L9,14L7.3,14L7.038,13.97L6.794,13.9L6.381,13.62L6.102,13.21L6.038,13L3,13L2,13L2,11L3,11L3,9L2,9L2,7L3,7L3,5L2,5L2,3L3,3L3,2L12,2L12,6L12.7,6L12.96,6.026L13.21,6.102L13.62,6.381L13.9,6.794L13.97,7.038L14,7.29L14,0.983L13.92,0.6012L13.71,0.2887L13.4,0.07754L13.02,0L1.983,0zz" fill="#cfcfcf"/>
      <path d="M0,5L1,5L1,3L0,3zM0,9L1,9L1,7L0,7zM0,13L1,13L1,11L0,11zz" fill="#cfcfcf"/>
      <path d="M1,5L2,5L2,3L1,3zM1,9L2,9L2,7L1,7zM1,13L2,13L2,11L1,11zz" fill="#F1F2F2"/>
      <path d="M2,5L3,5L3,3L2,3zM2,9L3,9L3,7L2,7zM2,13L3,13L3,11L2,11zz" fill="#B4B4B5"/>
      <path d="M3,13L6.038,13L6.026,12.96L6,12.7L6,10.3L6.026,10.04L6.102,9.794L6.381,9.381L6.794,9.102L7.038,9.026L7.3,9L9,9L9,7.3L9.026,7.038L9.102,6.794L9.381,6.381L9.794,6.102L10.04,6.026L10.3,6L12,6L12,2L3,2zz" fill="#FFFFFF"/>
      <path d="M4,7.304L9,7.304L9,7.3L9.026,7.038L9.102,6.794L9.381,6.381L9.794,6.102L10.04,6.026L10.3,6L11,6L11,3L4,3zz" fill="#E6E9ED"/>
      <path d="M4,12L6,12L6,10.3L6.026,10.04L6.102,9.794L6.381,9.381L6.794,9.102L7.038,9.026L7.3,9L9,9L9,7.5L4,7.5zz" fill="#E6E9ED"/>
      <path d="M5.598,8.874L5.238,8.982L4.855,9.188L4.444,9.504L4,9.941L4,12L6,12L6,10.3L6.026,10.04L6.102,9.794L6.381,9.381L6.774,9.116L6.589,9.02L6.269,8.904L5.94,8.852zz" fill="#cfcfcf"/>
      <path d="M8.743,3.835L6.317,6.3L6.197,6.167L7.145,5.208L6.359,4.379L6.223,4.326L6.087,4.379L4,6.41L4,7.5L9,7.5L9,7.3L9.026,7.038L9.102,6.794L9.381,6.381L9.794,6.102L10.04,6.026L10.3,6L11,6L11,5.963L10.97,5.884L9.012,3.835L8.878,3.782zz" fill="#cfcfcf"/>
    </g>
    <g id="overlay">
      <path d="M15.7,10h-2.7V7.3c0,-0.166,-0.134,-0.3,-0.3,-0.3h-2.4c-0.166,0,-0.3,0.134,-0.3,0.3v2.7H7.3c-0.166,0,-0.3,0.134,-0.3,0.3v2.4c0,0.166,0.134,0.3,0.3,0.3h2.7v2.7c0,0.166,0.134,0.3,0.3,0.3h2.4c0.166,0,0.3,-0.134,0.3,-0.3v-2.7h2.7c0.166,0,0.3,-0.134,0.3,-0.3v-2.4C16,10.134,15.866,10,15.7,10z" fill="#4EA17E"/>
    </g>
  </g>
</svg>