<svg version="1.1" id="Layer_1" xmlns="http://www.w3.org/2000/svg" xmlns:xlink="http://www.w3.org/1999/xlink" x="0px" y="0px" width="32px" height="32px" viewBox="0 0 32 32" enable-background="new 0 0 32 32" xml:space="preserve">
  <g id="main">
    <g id="icon">
      <path d="M5.038,0.02637L4.794,0.1021L4.381,0.3807L4.102,0.7939L4.026,1.038L4,1.3L4,28.7L4.026,28.96L4.102,29.21L4.381,29.62L4.794,29.9L5.038,29.97L5.3,30L17.21,30L17.15,29.9L17.07,29.62L17.04,29.34L17.07,29.05L17.15,28.77L17.29,28.51L17.48,28.28L17.76,28L7,28L6,28L5,28L5,26L6,26L6,24L5,24L5,22L6,22L6,20L5,20L5,18L6,18L6,16L5,16L5,14L6,14L6,12L5,12L5,10L6,10L6,8L5,8L5,6L6,6L6,4L5,4L5,2L6,2L7,2L26,2L26,19.76L28,17.76L28,1.3L27.97,1.038L27.9,0.7939L27.62,0.3807L27.21,0.1021L26.96,0.02637L26.7,0L5.3,0zM24.24,30L25.76,30L25,29.24zz" fill="#cfcfcf"/>
      <path d="M6,28L17.76,28L20.76,25L17.48,21.72L17.29,21.49L17.15,21.23L17.07,20.95L17.04,20.66L17.07,20.38L17.15,20.1L17.29,19.84L17.48,19.6L19.6,17.48L19.83,17.29L20.09,17.16L20.37,17.07L20.66,17.04L20.96,17.07L21.24,17.16L21.5,17.29L21.72,17.48L25,20.76L26,19.76L26,2L6,2zz" fill="#FFFFFF"/>
      <path d="M2,4L4,4L4,2L2,2zM2,8L4,8L4,6L2,6zM2,12L4,12L4,10L2,10zM2,16L4,16L4,14L2,14zM2,20L4,20L4,18L2,18zM2,24L4,24L4,22L2,22zM2,28L4,28L4,26L2,26zz" fill="#cfcfcf"/>
      <path d="M4,4L5,4L5,2L4,2zM4,8L5,8L5,6L4,6zM4,12L5,12L5,10L4,10zM4,16L5,16L5,14L4,14zM4,20L5,20L5,18L4,18zM4,24L5,24L5,22L4,22zM4,28L5,28L5,26L4,26zz" fill="#F1F2F2"/>
      <path d="M5,4L7,4L7,2L5,2zM5,8L7,8L7,6L5,6zM5,12L7,12L7,10L5,10zM5,16L7,16L7,14L5,14zM5,20L7,20L7,18L5,18zM5,24L7,24L7,22L5,22zM5,28L7,28L7,26L5,26zz" fill="#B4B4B5"/>
      <path d="M9,14L24,14L24,3L9,3zz" fill="#E6E9ED"/>
      <path d="M9,27L18.76,27L20.76,25L17.48,21.72L17.29,21.49L17.15,21.23L17.07,20.95L17.04,20.66L17.07,20.38L17.15,20.1L17.29,19.84L17.48,19.6L19.6,17.48L19.83,17.29L20.09,17.16L20.37,17.07L20.66,17.04L20.96,17.07L21.24,17.16L21.5,17.29L21.72,17.48L24,19.76L24,16L9,16zz" fill="#E6E9ED"/>
      <path d="M12.42,19.25L11.65,19.48L10.83,19.93L9.951,20.61L9,21.55L9,26L19.76,26L20.76,25L17.48,21.72L17.29,21.49L17.19,21.29L16.61,20.87L15.23,19.92L14.55,19.57L13.86,19.32L13.16,19.2zz" fill="#cfcfcf"/>
      <path d="M19.3,4.53L19.17,4.621L13.97,10.26L13.71,9.953L15.74,7.76L14.06,5.865L13.92,5.773L13.76,5.743L13.6,5.773L13.47,5.864L9,10.51L9,13L24,13L24,9.486L23.93,9.306L19.74,4.621L19.61,4.53L19.45,4.5zz" fill="#cfcfcf"/>
    </g>
    <g id="overlay">
      <path d="M31.91,29.789l-2.121,2.121c-0.195,0.195,-0.512,0.195,-0.707,0L25,27.828l-3.982,3.982c-0.195,0.195,-0.512,0.195,-0.707,0l-2.121,-2.121c-0.195,-0.195,-0.195,-0.512,0,-0.707L22.172,25l-3.982,-3.982c-0.195,-0.195,-0.195,-0.512,0,-0.707l2.121,-2.121c0.195,-0.195,0.512,-0.195,0.707,0L25,22.172l3.982,-3.982c0.195,-0.195,0.512,-0.195,0.707,0l2.121,2.121c0.195,0.195,0.195,0.512,0,0.707L27.828,25l4.082,4.082C32.106,29.277,32.106,29.594,31.91,29.789z" fill-rule="evenodd" fill="#CD4C32"/>
    </g>
  </g>
</svg>