<svg version="1.1" id="Layer_1" xmlns="http://www.w3.org/2000/svg" xmlns:xlink="http://www.w3.org/1999/xlink" x="0px" y="0px" width="32px" height="32px" viewBox="0 0 32 32" enable-background="new 0 0 32 32" xml:space="preserve">
  <g id="main">
    <g id="icon">
      <path d="M5.038,0.02637L4.794,0.1021L4.381,0.3807L4.102,0.7939L4.026,1.038L4,1.3L4,28.7L4.026,28.96L4.102,29.21L4.381,29.62L4.794,29.9L5.038,29.97L5.3,30L22,30L22,28L18.5,28L7,28L6,28L5,28L5,26L6,26L6,24L5,24L5,22L6,22L6,20L5,20L5,18L6,18L6,16L5,16L5,14L6,14L6,12L5,12L5,10L6,10L6,8L5,8L5,6L6,6L6,4L5,4L5,2L6,2L7,2L26,2L26,17L26.5,17L26.8,17.03L27.08,17.12L27.34,17.26L27.56,17.44L27.74,17.66L27.88,17.92L27.97,18.2L28,18.5L28,1.3L27.97,1.038L27.9,0.7939L27.62,0.3807L27.21,0.1021L26.96,0.02637L26.7,0L5.3,0zz" fill="#cfcfcf"/>
      <path d="M6,28L18.5,28L18.2,27.97L17.92,27.88L17.66,27.74L17.44,27.56L17.26,27.34L17.12,27.08L17.03,26.8L17,26.5L17,23.5L17.03,23.2L17.12,22.92L17.26,22.66L17.44,22.44L17.66,22.26L17.92,22.12L18.2,22.03L18.5,22L22,22L22,18.5L22.03,18.2L22.12,17.92L22.26,17.66L22.44,17.44L22.66,17.26L22.92,17.12L23.2,17.03L23.5,17L26,17L26,2L6,2zz" fill="#FFFFFF"/>
      <path d="M2,4L4,4L4,2L2,2zM2,8L4,8L4,6L2,6zM2,12L4,12L4,10L2,10zM2,16L4,16L4,14L2,14zM2,20L4,20L4,18L2,18zM2,24L4,24L4,22L2,22zM2,28L4,28L4,26L2,26zz" fill="#cfcfcf"/>
      <path d="M4,4L5,4L5,2L4,2zM4,8L5,8L5,6L4,6zM4,12L5,12L5,10L4,10zM4,16L5,16L5,14L4,14zM4,20L5,20L5,18L4,18zM4,24L5,24L5,22L4,22zM4,28L5,28L5,26L4,26zz" fill="#F1F2F2"/>
      <path d="M5,4L7,4L7,2L5,2zM5,8L7,8L7,6L5,6zM5,12L7,12L7,10L5,10zM5,16L7,16L7,14L5,14zM5,20L7,20L7,18L5,18zM5,24L7,24L7,22L5,22zM5,28L7,28L7,26L5,26zz" fill="#B4B4B5"/>
      <path d="M9,14L24,14L24,3L9,3zz" fill="#E6E9ED"/>
      <path d="M9,27L17.09,27L17.03,26.8L17,26.5L17,23.5L17.03,23.2L17.12,22.92L17.26,22.66L17.44,22.44L17.66,22.26L17.92,22.12L18.2,22.03L18.5,22L22,22L22,18.5L22.03,18.2L22.12,17.92L22.26,17.66L22.44,17.44L22.66,17.26L22.92,17.12L23.2,17.03L23.5,17L24,17L24,16L9,16zz" fill="#E6E9ED"/>
      <path d="M12.42,19.25L11.65,19.48L10.83,19.93L9.951,20.61L9,21.55L9,26L17,26L17,23.5L17.03,23.2L17.12,22.92L17.26,22.66L17.44,22.44L17.66,22.26L17.92,22.12L18.2,22.03L18.21,22.03L18.09,21.95L16.61,20.87L15.23,19.92L14.55,19.57L13.86,19.32L13.16,19.2zM20.26,20.7L19.9,20.76L19.52,20.86L19.13,21.03L18.31,21.56L18.96,22L22,22L22,21.14L21.96,21.11L21.29,20.83L20.61,20.7zz" fill="#cfcfcf"/>
      <path d="M19.3,4.53L19.17,4.621L13.97,10.26L13.71,9.953L15.74,7.76L14.06,5.865L13.92,5.773L13.76,5.743L13.6,5.773L13.47,5.864L9,10.51L9,13L24,13L24,9.486L23.93,9.306L19.74,4.621L19.61,4.53L19.45,4.5zz" fill="#cfcfcf"/>
    </g>
    <g id="overlay">
      <path d="M31.5,23h-4.5v-4.5c0,-0.276,-0.224,-0.5,-0.5,-0.5h-3c-0.276,0,-0.5,0.224,-0.5,0.5v4.5h-4.5c-0.276,0,-0.5,0.224,-0.5,0.5v3c0,0.276,0.224,0.5,0.5,0.5h4.5v4.5c0,0.276,0.224,0.5,0.5,0.5h3c0.276,0,0.5,-0.224,0.5,-0.5v-4.5h4.5c0.276,0,0.5,-0.224,0.5,-0.5v-3C32,23.224,31.776,23,31.5,23z" fill-rule="evenodd" fill="#4EA17E"/>
    </g>
  </g>
</svg>